<svg width="627" height="448" viewBox="0 0 627 448" fill="none" xmlns="http://www.w3.org/2000/svg">
<path d="M380.512 47.7722C395.205 43.9174 412.637 51.4843 426.124 56.7839C468.623 73.4831 503.143 105.733 524.408 146.278C556.882 208.195 531.3 271.132 498.45 326.596C488.613 343.205 478.121 359.118 465.728 373.927C462.367 377.943 458.308 381.334 457.685 386.467" stroke="#F06449" stroke-width="14" stroke-linecap="round"/>
<path d="M522.833 384.489C502.447 390.537 484.509 403.539 466.145 413.926C463.286 415.543 425.63 435.048 425.284 429.211C425.069 425.579 426.572 421.796 426.827 418.173C427.598 407.197 427.473 396.292 428.54 385.3C430.865 361.354 433.504 337.442 435.65 313.478C436.232 306.976 436.032 299.126 437.708 292.891" stroke="#F06449" stroke-width="14" stroke-linecap="round"/>
<path d="M21.5156 48.5781C22.6406 48.5781 23.707 48.6719 24.7148 48.8594C25.7227 49.0234 26.6367 49.2109 27.457 49.4219C28.2773 49.6094 28.9805 49.7969 29.5664 49.9844C30.1523 50.1484 30.5742 50.2305 30.832 50.2305C31.043 50.2305 31.2422 50.125 31.4297 49.9141C31.6172 49.6797 31.8516 49.4336 32.1328 49.1758C32.4141 48.918 32.7891 48.6836 33.2578 48.4727C33.7266 48.2383 34.3477 48.1211 35.1211 48.1211C36.0117 48.1211 36.7148 48.3555 37.2305 48.8242C37.7461 49.2695 38.0039 49.832 38.0039 50.5117C38.0039 59.0898 37.7109 66.3789 37.125 72.3789C36.5391 78.3555 35.5898 83.2188 34.2773 86.9688C32.9648 90.7188 31.2656 93.4375 29.1797 95.125C27.0938 96.8125 24.5625 97.6562 21.5859 97.6562C20.2266 97.6562 18.8086 97.3516 17.332 96.7422C15.8789 96.1328 14.543 95.3477 13.3242 94.3867C12.1055 93.4492 11.0977 92.4062 10.3008 91.2578C9.52734 90.1094 9.14062 89.0078 9.14062 87.9531C9.14062 87.6016 9.32812 87.1914 9.70312 86.7227C10.0781 86.2539 10.5352 85.7969 11.0742 85.3516C11.6133 84.9062 12.1758 84.5312 12.7617 84.2266C13.3477 83.9219 13.8516 83.7695 14.2734 83.7695C14.7188 83.7695 15.0938 83.9453 15.3984 84.2969C15.7031 84.6719 15.9844 85.1289 16.2422 85.668C16.5234 86.207 16.8047 86.793 17.0859 87.4258C17.3672 88.082 17.7188 88.6797 18.1406 89.2188C18.5625 89.7578 19.0781 90.2031 19.6875 90.5547C20.2969 90.9297 21.0586 91.1172 21.9727 91.1172C27.082 91.1172 30.082 83.3125 30.9727 67.7031C30.9727 67 30.7734 66.6484 30.375 66.6484C30.0469 66.6484 29.7891 66.8125 29.6016 67.1406C27.3984 70.1172 24.8203 72.3555 21.8672 73.8555C18.9375 75.332 15.6797 76.0703 12.0938 76.0703C10.4297 76.0703 8.89453 75.8242 7.48828 75.332C6.08203 74.8164 4.86328 74.1133 3.83203 73.2227C2.82422 72.3086 2.03906 71.2305 1.47656 69.9883C0.914062 68.7227 0.632812 67.3398 0.632812 65.8398C0.632812 64.3633 0.890625 62.9102 1.40625 61.4805C1.94531 60.0273 2.68359 58.668 3.62109 57.4023C4.58203 56.1133 5.71875 54.9297 7.03125 53.8516C8.34375 52.7734 9.77344 51.8477 11.3203 51.0742C12.8672 50.2773 14.4961 49.668 16.207 49.2461C17.9414 48.8008 19.7109 48.5781 21.5156 48.5781ZM13.1836 69.6016C16.3945 69.6016 19.3359 68.5938 22.0078 66.5781C24.6797 64.5391 26.9648 61.5859 28.8633 57.7188C28.9102 57.5781 28.9453 57.4727 28.9688 57.4023C28.9922 57.3086 29.0039 57.2148 29.0039 57.1211C29.0039 56.8867 28.7578 56.6406 28.2656 56.3828C27.7734 56.125 27.1289 55.9023 26.332 55.7148C25.5352 55.5273 24.6211 55.375 23.5898 55.2578C22.582 55.1172 21.5625 55.0469 20.5312 55.0469C18.8672 55.0469 17.2617 55.3281 15.7148 55.8906C14.168 56.4531 12.7969 57.2031 11.6016 58.1406C10.4062 59.0781 9.44531 60.1445 8.71875 61.3398C7.99219 62.5352 7.62891 63.7773 7.62891 65.0664C7.62891 66.4492 8.13281 67.5508 9.14062 68.3711C10.1719 69.1914 11.5195 69.6016 13.1836 69.6016ZM72.3881 68.3008C73.0678 67.7148 73.7358 67.4219 74.392 67.4219C74.767 67.4219 75.1069 67.5156 75.4116 67.7031C75.7163 67.8906 76.0561 68.1836 76.4311 68.582C76.7827 69.1211 77.0288 69.5664 77.1694 69.918C77.3334 70.2461 77.4155 70.5742 77.4155 70.9023C77.4155 71.6055 77.0639 72.2734 76.3608 72.9062C75.2358 73.8438 74.017 74.6875 72.7045 75.4375C71.392 76.1641 70.0209 76.7852 68.5913 77.3008C67.1616 77.8164 65.685 78.2031 64.1616 78.4609C62.6381 78.7422 61.1264 78.8828 59.6264 78.8828C57.728 78.8828 55.9467 78.6367 54.2827 78.1445C52.6186 77.6758 51.1303 76.9961 49.8178 76.1055C48.5288 75.2148 47.4389 74.1484 46.5483 72.9062C45.6577 71.6406 45.0248 70.2227 44.6498 68.6523C44.4389 67.9961 44.2397 67.5742 44.0522 67.3867C43.8881 67.1758 43.6069 67.0703 43.2084 67.0703C42.3413 67.0703 41.6733 66.8594 41.2045 66.4375C40.7358 66.0156 40.5014 65.4062 40.5014 64.6094C40.5014 64.2812 40.5248 64.0703 40.5717 63.9766L40.642 63.2734C40.7592 62.4297 40.9819 61.8203 41.31 61.4453C41.6616 61.0703 42.2006 60.8828 42.9272 60.8828H43.4545C44.4389 60.8828 45.1303 60.4258 45.5288 59.5117C46.2553 57.8945 47.1811 56.418 48.3061 55.082C49.4311 53.7461 50.6967 52.6094 52.103 51.6719C53.5092 50.7109 55.0092 49.9727 56.603 49.457C58.2202 48.918 59.8608 48.6484 61.5248 48.6484C63.2592 48.6484 64.8764 48.9062 66.3764 49.4219C67.8998 49.9141 69.2241 50.6055 70.3491 51.4961C71.4741 52.3867 72.353 53.4297 72.9858 54.625C73.642 55.8203 73.9702 57.1094 73.9702 58.4922C73.9702 59.4531 73.7827 60.332 73.4077 61.1289C73.0327 61.9258 72.4936 62.6289 71.7905 63.2383C71.0873 63.8242 70.2319 64.3047 69.2241 64.6797C68.2397 65.0547 67.1147 65.3008 65.8491 65.418L53.6498 66.6484C53.1811 66.6484 52.7944 66.7656 52.4897 67C52.2084 67.2344 52.0678 67.5508 52.0678 67.9492C52.0678 68.5586 52.2905 69.1445 52.7358 69.707C53.2045 70.2695 53.8139 70.7734 54.5639 71.2188C55.3373 71.6406 56.2163 71.9805 57.2006 72.2383C58.2084 72.4961 59.2397 72.625 60.2944 72.625C61.3022 72.625 62.3334 72.5312 63.3881 72.3438C64.4663 72.1328 65.5209 71.8398 66.5522 71.4648C67.6069 71.0898 68.6264 70.6445 69.6108 70.1289C70.5952 69.5898 71.5209 68.9805 72.3881 68.3008ZM64.5483 59.2305C64.8998 59.1602 65.2045 58.9961 65.4623 58.7383C65.7202 58.457 65.8491 58.1172 65.8491 57.7188C65.8491 57.3672 65.7202 57.0391 65.4623 56.7344C65.2045 56.4297 64.853 56.1602 64.4077 55.9258C63.9623 55.668 63.4467 55.4688 62.8608 55.3281C62.2748 55.1875 61.6538 55.1172 60.9975 55.1172C60.0366 55.1172 59.0522 55.2578 58.0444 55.5391C57.0366 55.8203 56.1225 56.1953 55.3022 56.6641C54.4819 57.1094 53.8139 57.6133 53.2983 58.1758C52.7827 58.7148 52.5248 59.2539 52.5248 59.793C52.5248 60.332 52.853 60.6016 53.5092 60.6016C53.9077 60.6016 54.5522 60.5547 55.4428 60.4609C56.3334 60.3672 57.3178 60.2617 58.3959 60.1445C59.4741 60.0039 60.5639 59.8516 61.6655 59.6875C62.767 59.5234 63.728 59.3711 64.5483 59.2305ZM81.495 35.3945C81.495 34.1523 81.8466 33.2852 82.5497 32.793C83.2528 32.2773 84.413 32.0195 86.0302 32.0195C86.6161 32.0195 87.1083 32.0781 87.5067 32.1953C87.9286 32.2891 88.2802 32.4766 88.5614 32.7578C88.8661 33.0391 89.1005 33.4141 89.2645 33.8828C89.452 34.3281 89.6044 34.9023 89.7216 35.6055C90.0028 37.7852 90.3075 40.0352 90.6356 42.3555C90.9872 44.6758 91.3505 47.0078 91.7255 49.3516C91.8661 50.4062 92.4169 50.9336 93.3778 50.9336C93.6356 50.9336 94.0575 50.9102 94.6434 50.8633C95.2528 50.793 95.9677 50.7227 96.788 50.6523C97.6083 50.5586 98.4872 50.4648 99.4247 50.3711C100.386 50.2773 101.335 50.1953 102.272 50.125C103.233 50.0312 104.136 49.9609 104.979 49.9141C105.847 49.8438 106.608 49.8086 107.265 49.8086C107.78 49.8086 108.19 49.9141 108.495 50.125C108.8 50.3125 109.034 50.5703 109.198 50.8984C109.386 51.2031 109.503 51.5547 109.55 51.9531C109.62 52.3281 109.655 52.7148 109.655 53.1133C109.655 53.4648 109.585 53.8281 109.444 54.2031C109.327 54.5781 109.151 54.918 108.917 55.2227C108.706 55.5039 108.436 55.7383 108.108 55.9258C107.78 56.1133 107.405 56.207 106.983 56.207C104.944 56.207 102.882 56.2773 100.796 56.418C98.7333 56.5352 96.6708 56.6992 94.6083 56.9102C93.5536 57.0508 93.0263 57.5781 93.0263 58.4922C93.0263 58.5625 93.038 58.6562 93.0614 58.7734C93.0848 58.8672 93.0966 58.9492 93.0966 59.0195C93.3778 61.0586 93.6356 62.9688 93.87 64.75C94.1278 66.5312 94.3388 68.125 94.5028 69.5312C94.6903 70.9141 94.8309 72.0742 94.9247 73.0117C95.0419 73.9258 95.1005 74.5352 95.1005 74.8398C95.1005 75.6836 95.0184 76.3867 94.8544 76.9492C94.6903 77.5352 94.4208 78.0039 94.0458 78.3555C93.6708 78.7305 93.1669 78.9883 92.5341 79.1289C91.9247 79.293 91.1513 79.375 90.2138 79.375C89.3231 79.375 88.6669 79.1641 88.245 78.7422C87.8231 78.3203 87.5888 77.6758 87.5419 76.8086C87.4013 74.043 87.1786 71.2656 86.8739 68.4766C86.5692 65.6641 86.2177 62.8633 85.8192 60.0742C85.6083 59.0664 85.0809 58.5625 84.2372 58.5625C84.1669 58.5625 84.0848 58.5742 83.9911 58.5977C83.8973 58.6211 83.8153 58.6328 83.745 58.6328C82.2919 58.9609 80.9208 59.2891 79.6317 59.6172C78.3427 59.9453 77.1356 60.2969 76.0106 60.6719C75.3778 60.8828 74.8153 61.0352 74.3231 61.1289C73.8309 61.1992 73.3856 61.2344 72.9872 61.2344C72.4481 61.2344 72.0497 61 71.7919 60.5312C71.5341 60.0391 71.4052 59.4297 71.4052 58.7031C71.4052 58.4453 71.4286 58.1523 71.4755 57.8242C71.5223 57.4727 71.6161 57.1328 71.7567 56.8047C71.8739 56.4531 72.0614 56.1367 72.3192 55.8555C72.5536 55.5508 72.8817 55.3047 73.3036 55.1172C74.288 54.7188 75.6005 54.3086 77.2411 53.8867C78.8817 53.4414 80.7333 53.0312 82.7958 52.6562C83.2645 52.5391 83.6278 52.3516 83.8856 52.0938C84.1669 51.8125 84.3075 51.4023 84.3075 50.8633C84.3075 50.7461 84.3075 50.6289 84.3075 50.5117C84.3075 50.3711 84.2841 50.2305 84.2372 50.0898C83.8622 47.9336 83.4989 45.9766 83.1473 44.2188C82.8192 42.4375 82.5263 40.9141 82.2684 39.6484C82.0341 38.3828 81.8466 37.3867 81.7059 36.6602C81.5653 35.9336 81.495 35.5117 81.495 35.3945ZM130.576 45.4844C132.146 45.4844 133.763 45.6953 135.427 46.1172C137.092 46.5156 138.615 47.043 139.998 47.6992C141.381 48.332 142.517 49.0469 143.408 49.8438C144.299 50.6406 144.744 51.4141 144.744 52.1641C144.744 52.5391 144.58 52.9609 144.252 53.4297C143.924 53.875 143.525 54.3086 143.056 54.7305C142.588 55.1289 142.072 55.4688 141.51 55.75C140.97 56.0078 140.49 56.1367 140.068 56.1367C139.506 56.1367 138.873 55.9023 138.17 55.4336C137.49 54.9648 136.728 54.4492 135.885 53.8867C135.064 53.3008 134.162 52.7734 133.177 52.3047C132.193 51.8359 131.127 51.6016 129.978 51.6016C129.228 51.6016 128.607 51.7891 128.115 52.1641C127.646 52.5156 127.412 53.0195 127.412 53.6758C127.412 54.2617 127.693 54.8594 128.256 55.4688C128.818 56.0547 129.556 56.6641 130.47 57.2969C131.408 57.9297 132.463 58.5977 133.635 59.3008C134.806 60.0039 136.002 60.7539 137.22 61.5508C138.463 62.3477 139.67 63.2148 140.842 64.1523C142.013 65.0898 143.056 66.1094 143.97 67.2109C144.908 68.3125 145.658 69.5195 146.22 70.832C146.783 72.1211 147.064 73.5273 147.064 75.0508C147.064 76.3633 146.83 77.5586 146.361 78.6367C145.892 79.7148 145.224 80.6406 144.357 81.4141C143.49 82.1875 142.459 82.7852 141.263 83.207C140.068 83.6289 138.756 83.8398 137.326 83.8398C135.521 83.8398 133.857 83.5586 132.334 82.9961C130.81 82.457 129.498 81.707 128.396 80.7461C127.295 79.7852 126.427 78.6367 125.795 77.3008C125.185 75.9648 124.881 74.5 124.881 72.9062C124.881 70.8438 125.244 69.3438 125.97 68.4062C126.72 67.4688 127.892 67 129.486 67C130.47 67 131.256 67.1875 131.842 67.5625C132.427 67.9375 132.72 68.3945 132.72 68.9336C132.72 69.2148 132.674 69.5078 132.58 69.8125C132.486 70.0938 132.381 70.3984 132.263 70.7266C132.17 71.0312 132.076 71.3594 131.982 71.7109C131.912 72.0625 131.877 72.4141 131.877 72.7656C131.877 73.375 132.017 73.9609 132.299 74.5234C132.58 75.0859 132.955 75.5781 133.424 76C133.916 76.4453 134.478 76.7969 135.111 77.0547C135.744 77.3125 136.412 77.4414 137.115 77.4414C138.99 77.4414 139.927 76.668 139.927 75.1211C139.927 73.9023 139.447 72.7539 138.486 71.6758C137.525 70.5742 136.318 69.5078 134.865 68.4766C133.412 67.4219 131.842 66.3672 130.154 65.3125C128.49 64.2578 126.931 63.1562 125.478 62.0078C124.025 60.8594 122.818 59.6406 121.857 58.3516C120.896 57.0391 120.416 55.6211 120.416 54.0977C120.416 52.832 120.674 51.6719 121.189 50.6172C121.728 49.5625 122.455 48.6602 123.369 47.9102C124.283 47.1367 125.349 46.5391 126.568 46.1172C127.81 45.6953 129.146 45.4844 130.576 45.4844ZM150.159 35.3945C150.159 34.1523 150.511 33.2852 151.214 32.793C151.917 32.2773 153.077 32.0195 154.695 32.0195C155.28 32.0195 155.773 32.0781 156.171 32.1953C156.593 32.2891 156.945 32.4766 157.226 32.7578C157.53 33.0391 157.765 33.4141 157.929 33.8828C158.116 34.3281 158.269 34.9023 158.386 35.6055C158.667 37.7852 158.972 40.0352 159.3 42.3555C159.652 44.6758 160.015 47.0078 160.39 49.3516C160.53 50.4062 161.081 50.9336 162.042 50.9336C162.3 50.9336 162.722 50.9102 163.308 50.8633C163.917 50.793 164.632 50.7227 165.452 50.6523C166.273 50.5586 167.152 50.4648 168.089 50.3711C169.05 50.2773 169.999 50.1953 170.937 50.125C171.898 50.0312 172.8 49.9609 173.644 49.9141C174.511 49.8438 175.273 49.8086 175.929 49.8086C176.445 49.8086 176.855 49.9141 177.159 50.125C177.464 50.3125 177.698 50.5703 177.863 50.8984C178.05 51.2031 178.167 51.5547 178.214 51.9531C178.284 52.3281 178.32 52.7148 178.32 53.1133C178.32 53.4648 178.249 53.8281 178.109 54.2031C177.991 54.5781 177.816 54.918 177.581 55.2227C177.37 55.5039 177.101 55.7383 176.773 55.9258C176.445 56.1133 176.07 56.207 175.648 56.207C173.609 56.207 171.546 56.2773 169.46 56.418C167.398 56.5352 165.335 56.6992 163.273 56.9102C162.218 57.0508 161.691 57.5781 161.691 58.4922C161.691 58.5625 161.702 58.6562 161.726 58.7734C161.749 58.8672 161.761 58.9492 161.761 59.0195C162.042 61.0586 162.3 62.9688 162.534 64.75C162.792 66.5312 163.003 68.125 163.167 69.5312C163.355 70.9141 163.495 72.0742 163.589 73.0117C163.706 73.9258 163.765 74.5352 163.765 74.8398C163.765 75.6836 163.683 76.3867 163.519 76.9492C163.355 77.5352 163.085 78.0039 162.71 78.3555C162.335 78.7305 161.831 78.9883 161.198 79.1289C160.589 79.293 159.816 79.375 158.878 79.375C157.988 79.375 157.331 79.1641 156.909 78.7422C156.488 78.3203 156.253 77.6758 156.206 76.8086C156.066 74.043 155.843 71.2656 155.538 68.4766C155.234 65.6641 154.882 62.8633 154.484 60.0742C154.273 59.0664 153.745 58.5625 152.902 58.5625C152.831 58.5625 152.749 58.5742 152.655 58.5977C152.562 58.6211 152.48 58.6328 152.409 58.6328C150.956 58.9609 149.585 59.2891 148.296 59.6172C147.007 59.9453 145.8 60.2969 144.675 60.6719C144.042 60.8828 143.48 61.0352 142.988 61.1289C142.495 61.1992 142.05 61.2344 141.652 61.2344C141.113 61.2344 140.714 61 140.456 60.5312C140.198 60.0391 140.07 59.4297 140.07 58.7031C140.07 58.4453 140.093 58.1523 140.14 57.8242C140.187 57.4727 140.28 57.1328 140.421 56.8047C140.538 56.4531 140.726 56.1367 140.984 55.8555C141.218 55.5508 141.546 55.3047 141.968 55.1172C142.952 54.7188 144.265 54.3086 145.905 53.8867C147.546 53.4414 149.398 53.0312 151.46 52.6562C151.929 52.5391 152.292 52.3516 152.55 52.0938C152.831 51.8125 152.972 51.4023 152.972 50.8633C152.972 50.7461 152.972 50.6289 152.972 50.5117C152.972 50.3711 152.948 50.2305 152.902 50.0898C152.527 47.9336 152.163 45.9766 151.812 44.2188C151.484 42.4375 151.191 40.9141 150.933 39.6484C150.698 38.3828 150.511 37.3867 150.37 36.6602C150.23 35.9336 150.159 35.5117 150.159 35.3945ZM196.919 45.2734C198.208 45.2734 199.45 45.4727 200.645 45.8711C201.84 46.2695 202.895 46.8203 203.809 47.5234C204.723 48.2266 205.45 49.0703 205.989 50.0547C206.551 51.0391 206.833 52.1289 206.833 53.3242C206.833 53.8164 206.715 54.2969 206.481 54.7656C206.27 55.2109 205.977 55.6094 205.602 55.9609C205.227 56.2891 204.794 56.5586 204.301 56.7695C203.833 56.957 203.34 57.0508 202.825 57.0508C202.778 57.0508 202.731 57.0625 202.684 57.0859C202.661 57.0859 202.626 57.0859 202.579 57.0859C202.532 57.1094 202.485 57.1211 202.438 57.1211L202.579 59.9336C202.673 63.2852 203.141 65.7344 203.985 67.2812C204.852 68.8281 205.977 69.6016 207.36 69.6016C207.852 69.6016 208.286 69.5547 208.661 69.4609C209.059 69.3672 209.423 69.2617 209.751 69.1445C210.102 69.0039 210.43 68.8867 210.735 68.793C211.04 68.6992 211.344 68.6523 211.649 68.6523C212.188 68.6523 212.657 68.8867 213.055 69.3555C213.477 69.8242 213.688 70.3867 213.688 71.043C213.688 71.6992 213.43 72.3555 212.915 73.0117C212.423 73.668 211.766 74.2656 210.946 74.8047C210.126 75.3203 209.2 75.7422 208.169 76.0703C207.137 76.3984 206.094 76.5625 205.04 76.5625C203.212 76.5625 201.606 75.8125 200.223 74.3125C198.84 72.7891 197.856 70.5625 197.27 67.6328C197.13 67.1641 196.942 66.9297 196.708 66.9297C196.426 66.9297 196.18 67.0703 195.969 67.3516C193.649 70.2812 191.176 72.4844 188.551 73.9609C185.926 75.4141 183.337 76.1406 180.782 76.1406C179.587 76.1406 178.508 75.9648 177.548 75.6133C176.587 75.2617 175.766 74.7695 175.087 74.1367C174.43 73.4805 173.915 72.6953 173.54 71.7812C173.188 70.8438 173.012 69.8008 173.012 68.6523C173.012 67.0352 173.364 65.3359 174.067 63.5547C174.794 61.7734 175.766 60.0156 176.985 58.2812C178.204 56.5469 179.61 54.8945 181.204 53.3242C182.821 51.7539 184.508 50.3711 186.266 49.1758C188.048 47.9805 189.852 47.0312 191.68 46.3281C193.508 45.625 195.255 45.2734 196.919 45.2734ZM195.758 57.4375C196.18 56.6406 196.567 56.0664 196.919 55.7148C197.27 55.3398 197.774 55.0938 198.43 54.9766C198.946 54.9062 199.204 54.7422 199.204 54.4844C199.204 54.2969 199.133 54.0977 198.993 53.8867C198.548 53.2773 198.079 52.75 197.587 52.3047C197.094 51.8359 196.438 51.6016 195.618 51.6016C194.727 51.6016 193.731 51.8594 192.63 52.375C191.528 52.8906 190.403 53.582 189.255 54.4492C188.13 55.293 187.016 56.2656 185.915 57.3672C184.837 58.4453 183.876 59.5586 183.032 60.707C182.188 61.8555 181.508 62.9922 180.993 64.1172C180.477 65.2422 180.219 66.25 180.219 67.1406C180.219 67.9375 180.43 68.5586 180.852 69.0039C181.298 69.4492 181.895 69.6719 182.645 69.6719C184.567 69.6719 186.665 68.6523 188.938 66.6133C191.212 64.5742 193.485 61.5156 195.758 57.4375ZM232.463 49.7031C231.596 49.7031 230.834 49.9375 230.178 50.4062C229.522 50.8516 228.959 51.4844 228.49 52.3047C228.022 53.1016 227.635 54.0508 227.33 55.1523C227.025 56.2305 226.779 57.4141 226.592 58.7031C226.404 59.9922 226.275 61.3398 226.205 62.7461C226.135 64.1523 226.1 65.5703 226.1 67C226.1 68.875 226.17 70.7266 226.311 72.5547C226.475 74.3594 226.557 76.0352 226.557 77.582C226.557 78.5898 226.182 79.375 225.432 79.9375C224.682 80.5234 223.615 80.8164 222.232 80.8164C221.975 80.8164 221.682 80.793 221.354 80.7461C221.025 80.6992 220.709 80.6055 220.404 80.4648C220.123 80.3242 219.865 80.125 219.631 79.8672C219.42 79.6328 219.303 79.3047 219.279 78.8828C219.068 76.8203 218.764 74.7109 218.365 72.5547C217.967 70.3984 217.463 68.2539 216.854 66.1211C216.268 63.9648 215.553 61.832 214.709 59.7227C213.889 57.6133 212.94 55.5508 211.861 53.5352C211.674 53.1836 211.51 52.8555 211.369 52.5508C211.252 52.2461 211.193 51.9531 211.193 51.6719C211.193 51.3203 211.346 50.9453 211.65 50.5469C211.979 50.125 212.377 49.7383 212.846 49.3867C213.338 49.0352 213.865 48.7539 214.428 48.543C215.014 48.3086 215.576 48.1914 216.115 48.1914C217.006 48.1914 217.791 48.8125 218.471 50.0547C219.15 51.2734 219.783 53.2305 220.369 55.9258C220.486 56.3945 220.58 56.7227 220.65 56.9102C220.721 57.0977 220.815 57.1914 220.932 57.1914C221.19 57.1914 221.354 56.793 221.424 55.9961C221.705 53.7695 222.186 51.8594 222.865 50.2656C223.545 48.6484 224.389 47.3242 225.397 46.293C226.428 45.2383 227.6 44.4648 228.912 43.9727C230.248 43.4805 231.713 43.2344 233.307 43.2344C234.221 43.2344 235.147 43.3164 236.084 43.4805C237.022 43.6445 237.865 43.8906 238.615 44.2188C239.365 44.5469 239.975 44.9453 240.443 45.4141C240.912 45.8828 241.147 46.4102 241.147 46.9961C241.147 47.418 241.053 47.9219 240.865 48.5078C240.701 49.0703 240.479 49.6211 240.197 50.1602C239.916 50.6758 239.588 51.1211 239.213 51.4961C238.861 51.8477 238.498 52.0234 238.123 52.0234C237.701 52.0234 237.291 51.9062 236.893 51.6719C236.494 51.4141 236.061 51.1445 235.592 50.8633C235.147 50.582 234.666 50.3242 234.15 50.0898C233.658 49.832 233.096 49.7031 232.463 49.7031ZM240.761 35.3945C240.761 34.1523 241.113 33.2852 241.816 32.793C242.519 32.2773 243.679 32.0195 245.296 32.0195C245.882 32.0195 246.375 32.0781 246.773 32.1953C247.195 32.2891 247.546 32.4766 247.828 32.7578C248.132 33.0391 248.367 33.4141 248.531 33.8828C248.718 34.3281 248.871 34.9023 248.988 35.6055C249.269 37.7852 249.574 40.0352 249.902 42.3555C250.253 44.6758 250.617 47.0078 250.992 49.3516C251.132 50.4062 251.683 50.9336 252.644 50.9336C252.902 50.9336 253.324 50.9102 253.91 50.8633C254.519 50.793 255.234 50.7227 256.054 50.6523C256.875 50.5586 257.753 50.4648 258.691 50.3711C259.652 50.2773 260.601 50.1953 261.539 50.125C262.5 50.0312 263.402 49.9609 264.246 49.9141C265.113 49.8438 265.875 49.8086 266.531 49.8086C267.046 49.8086 267.457 49.9141 267.761 50.125C268.066 50.3125 268.3 50.5703 268.464 50.8984C268.652 51.2031 268.769 51.5547 268.816 51.9531C268.886 52.3281 268.921 52.7148 268.921 53.1133C268.921 53.4648 268.851 53.8281 268.71 54.2031C268.593 54.5781 268.417 54.918 268.183 55.2227C267.972 55.5039 267.703 55.7383 267.375 55.9258C267.046 56.1133 266.671 56.207 266.25 56.207C264.21 56.207 262.148 56.2773 260.062 56.418C258 56.5352 255.937 56.6992 253.875 56.9102C252.82 57.0508 252.292 57.5781 252.292 58.4922C252.292 58.5625 252.304 58.6562 252.328 58.7734C252.351 58.8672 252.363 58.9492 252.363 59.0195C252.644 61.0586 252.902 62.9688 253.136 64.75C253.394 66.5312 253.605 68.125 253.769 69.5312C253.957 70.9141 254.097 72.0742 254.191 73.0117C254.308 73.9258 254.367 74.5352 254.367 74.8398C254.367 75.6836 254.285 76.3867 254.121 76.9492C253.957 77.5352 253.687 78.0039 253.312 78.3555C252.937 78.7305 252.433 78.9883 251.8 79.1289C251.191 79.293 250.417 79.375 249.48 79.375C248.589 79.375 247.933 79.1641 247.511 78.7422C247.089 78.3203 246.855 77.6758 246.808 76.8086C246.667 74.043 246.445 71.2656 246.14 68.4766C245.835 65.6641 245.484 62.8633 245.085 60.0742C244.875 59.0664 244.347 58.5625 243.503 58.5625C243.433 58.5625 243.351 58.5742 243.257 58.5977C243.164 58.6211 243.082 58.6328 243.011 58.6328C241.558 58.9609 240.187 59.2891 238.898 59.6172C237.609 59.9453 236.402 60.2969 235.277 60.6719C234.644 60.8828 234.082 61.0352 233.589 61.1289C233.097 61.1992 232.652 61.2344 232.253 61.2344C231.714 61.2344 231.316 61 231.058 60.5312C230.8 60.0391 230.671 59.4297 230.671 58.7031C230.671 58.4453 230.695 58.1523 230.742 57.8242C230.789 57.4727 230.882 57.1328 231.023 56.8047C231.14 56.4531 231.328 56.1367 231.585 55.8555C231.82 55.5508 232.148 55.3047 232.57 55.1172C233.554 54.7188 234.867 54.3086 236.507 53.8867C238.148 53.4414 240 53.0312 242.062 52.6562C242.531 52.5391 242.894 52.3516 243.152 52.0938C243.433 51.8125 243.574 51.4023 243.574 50.8633C243.574 50.7461 243.574 50.6289 243.574 50.5117C243.574 50.3711 243.55 50.2305 243.503 50.0898C243.128 47.9336 242.765 45.9766 242.414 44.2188C242.085 42.4375 241.792 40.9141 241.535 39.6484C241.3 38.3828 241.113 37.3867 240.972 36.6602C240.832 35.9336 240.761 35.5117 240.761 35.3945ZM295.36 68.3008C296.04 67.7148 296.708 67.4219 297.364 67.4219C297.739 67.4219 298.079 67.5156 298.384 67.7031C298.688 67.8906 299.028 68.1836 299.403 68.582C299.755 69.1211 300.001 69.5664 300.142 69.918C300.306 70.2461 300.388 70.5742 300.388 70.9023C300.388 71.6055 300.036 72.2734 299.333 72.9062C298.208 73.8438 296.989 74.6875 295.677 75.4375C294.364 76.1641 292.993 76.7852 291.563 77.3008C290.134 77.8164 288.657 78.2031 287.134 78.4609C285.61 78.7422 284.099 78.8828 282.599 78.8828C280.7 78.8828 278.919 78.6367 277.255 78.1445C275.591 77.6758 274.103 76.9961 272.79 76.1055C271.501 75.2148 270.411 74.1484 269.52 72.9062C268.63 71.6406 267.997 70.2227 267.622 68.6523C267.411 67.9961 267.212 67.5742 267.024 67.3867C266.86 67.1758 266.579 67.0703 266.181 67.0703C265.313 67.0703 264.645 66.8594 264.177 66.4375C263.708 66.0156 263.474 65.4062 263.474 64.6094C263.474 64.2812 263.497 64.0703 263.544 63.9766L263.614 63.2734C263.731 62.4297 263.954 61.8203 264.282 61.4453C264.634 61.0703 265.173 60.8828 265.899 60.8828H266.427C267.411 60.8828 268.103 60.4258 268.501 59.5117C269.228 57.8945 270.153 56.418 271.278 55.082C272.403 53.7461 273.669 52.6094 275.075 51.6719C276.481 50.7109 277.981 49.9727 279.575 49.457C281.192 48.918 282.833 48.6484 284.497 48.6484C286.231 48.6484 287.849 48.9062 289.349 49.4219C290.872 49.9141 292.196 50.6055 293.321 51.4961C294.446 52.3867 295.325 53.4297 295.958 54.625C296.614 55.8203 296.942 57.1094 296.942 58.4922C296.942 59.4531 296.755 60.332 296.38 61.1289C296.005 61.9258 295.466 62.6289 294.763 63.2383C294.06 63.8242 293.204 64.3047 292.196 64.6797C291.212 65.0547 290.087 65.3008 288.821 65.418L276.622 66.6484C276.153 66.6484 275.767 66.7656 275.462 67C275.181 67.2344 275.04 67.5508 275.04 67.9492C275.04 68.5586 275.263 69.1445 275.708 69.707C276.177 70.2695 276.786 70.7734 277.536 71.2188C278.31 71.6406 279.188 71.9805 280.173 72.2383C281.181 72.4961 282.212 72.625 283.267 72.625C284.274 72.625 285.306 72.5312 286.36 72.3438C287.438 72.1328 288.493 71.8398 289.524 71.4648C290.579 71.0898 291.599 70.6445 292.583 70.1289C293.567 69.5898 294.493 68.9805 295.36 68.3008ZM287.52 59.2305C287.872 59.1602 288.177 58.9961 288.435 58.7383C288.692 58.457 288.821 58.1172 288.821 57.7188C288.821 57.3672 288.692 57.0391 288.435 56.7344C288.177 56.4297 287.825 56.1602 287.38 55.9258C286.935 55.668 286.419 55.4688 285.833 55.3281C285.247 55.1875 284.626 55.1172 283.97 55.1172C283.009 55.1172 282.024 55.2578 281.017 55.5391C280.009 55.8203 279.095 56.1953 278.274 56.6641C277.454 57.1094 276.786 57.6133 276.27 58.1758C275.755 58.7148 275.497 59.2539 275.497 59.793C275.497 60.332 275.825 60.6016 276.481 60.6016C276.88 60.6016 277.524 60.5547 278.415 60.4609C279.306 60.3672 280.29 60.2617 281.368 60.1445C282.446 60.0039 283.536 59.8516 284.638 59.6875C285.739 59.5234 286.7 59.3711 287.52 59.2305ZM324.717 50.3008C324.811 50.3477 324.952 50.3711 325.139 50.3711C325.655 50.3711 325.913 50.0312 325.913 49.3516V38.418C325.913 37.0352 326.217 36.0508 326.827 35.4648C327.459 34.8789 328.502 34.5859 329.955 34.5859C331.432 34.5859 332.475 34.8906 333.084 35.5C333.694 36.1094 333.998 37.1523 333.998 38.6289C333.998 39.1914 333.963 40.0234 333.893 41.125C333.823 42.2031 333.741 43.4336 333.647 44.8164C333.577 46.1992 333.506 47.6875 333.436 49.2812C333.366 50.8516 333.33 52.4102 333.33 53.957C333.33 56.3477 333.495 58.4102 333.823 60.1445C334.151 61.8789 334.62 63.3203 335.229 64.4688C335.838 65.5938 336.565 66.4375 337.409 67C338.252 67.5391 339.202 67.8086 340.256 67.8086C340.842 67.8086 341.37 67.7383 341.838 67.5977C342.33 67.4336 342.905 67.3516 343.561 67.3516C344.03 67.3516 344.416 67.5977 344.721 68.0898C345.049 68.5586 345.213 69.1328 345.213 69.8125C345.213 70.4219 345.026 70.9961 344.651 71.5352C344.299 72.0742 343.807 72.543 343.174 72.9414C342.565 73.3398 341.85 73.6562 341.03 73.8906C340.209 74.1016 339.354 74.207 338.463 74.207C336.541 74.207 334.784 73.6211 333.19 72.4492C331.596 71.2539 330.401 69.4375 329.604 67C329.534 66.625 329.416 66.4375 329.252 66.4375C329.065 66.4375 328.913 66.625 328.795 67C328.163 68.7109 327.33 70.2578 326.299 71.6406C325.291 73 324.108 74.1719 322.748 75.1562C321.413 76.1172 319.936 76.8555 318.319 77.3711C316.725 77.8867 315.038 78.1445 313.256 78.1445C311.381 78.1445 309.659 77.8281 308.088 77.1953C306.541 76.5859 305.205 75.7305 304.08 74.6289C302.955 73.5039 302.077 72.1914 301.444 70.6914C300.811 69.168 300.495 67.5273 300.495 65.7695C300.495 63.5195 300.963 61.3984 301.901 59.4062C302.838 57.4141 304.104 55.6797 305.698 54.2031C307.315 52.7031 309.19 51.5195 311.323 50.6523C313.455 49.7852 315.729 49.3516 318.143 49.3516C319.127 49.3516 320.17 49.4336 321.272 49.5977C322.373 49.7383 323.522 49.9727 324.717 50.3008ZM314.627 71.8164C315.963 71.8164 317.147 71.5234 318.178 70.9375C319.233 70.3516 320.159 69.6133 320.955 68.7227C321.776 67.8086 322.467 66.8125 323.03 65.7344C323.592 64.6328 324.049 63.5664 324.401 62.5352C324.752 61.5039 325.01 60.5781 325.174 59.7578C325.338 58.9375 325.42 58.3516 325.42 58C325.42 57.7422 325.35 57.5195 325.209 57.332C325.069 57.1211 324.858 56.957 324.577 56.8398C323.944 56.6758 323.288 56.5352 322.608 56.418C321.928 56.2773 321.26 56.1602 320.604 56.0664C319.948 55.9727 319.315 55.9023 318.705 55.8555C318.12 55.8086 317.58 55.7852 317.088 55.7852C315.682 55.7852 314.405 55.9961 313.256 56.418C312.108 56.8398 311.123 57.4375 310.303 58.2109C309.506 58.9844 308.885 59.9102 308.44 60.9883C307.995 62.043 307.772 63.2031 307.772 64.4688C307.772 65.5938 307.936 66.6133 308.264 67.5273C308.616 68.418 309.084 69.1797 309.67 69.8125C310.28 70.4453 311.006 70.9375 311.85 71.2891C312.694 71.6406 313.62 71.8164 314.627 71.8164Z" fill="#F06449"/>
</svg>
