<svg width="550" height="506" viewBox="0 0 550 506" fill="none" xmlns="http://www.w3.org/2000/svg">
<g clip-path="url(#clip0)">
<g opacity="0.5">
<path d="M344.073 171.79L336.668 174.138L297.23 177.651L286.09 195.44L278.007 192.872L246.621 164.574L242.067 149.857L235.969 134.164L216.243 116.47L192.971 111.916L192.435 122.567L215.234 144.815L226.39 157.956L213.848 164.51L203.638 161.501L188.338 155.12L188.858 142.783L168.785 134.526L162.12 163.534L141.889 168.119L143.89 184.3L170.25 189.374L174.804 163.518L196.563 166.732L206.679 172.656H222.908L234.016 194.904L263.464 224.778L261.306 236.391L237.561 233.366L196.531 254.085L166.988 289.521L163.144 305.214H152.54L132.782 296.107L113.59 305.214L118.364 325.461L126.715 315.834L141.4 315.377L140.376 333.56L152.54 337.121L164.688 350.766L184.525 345.188L207.183 348.765L233.496 355.839L246.636 357.383L268.916 382.672L311.915 407.961L284.105 461.091L254.751 474.736L243.611 505.099L201.132 533.46L196.61 549.815C305.203 523.66 385.985 426.112 385.985 309.484C385.954 258.544 370.512 211.133 344.073 171.79Z" fill="#F7F7FF"/>
<path d="M166.972 438.843L148.947 405.424L165.491 370.95L148.947 366.002L130.37 347.347L89.2146 338.113L75.5539 309.531V326.501H69.535L34.0675 278.413V238.912L8.06963 196.638L-33.2119 203.996H-61.0217L-75.0133 194.826L-57.1614 180.676L-74.9661 184.789C-96.4261 221.438 -108.937 263.964 -108.937 309.516C-108.937 446.17 1.8459 557 138.516 557C149.041 557 159.362 556.07 169.572 554.841L166.988 524.857C166.988 524.857 178.348 480.33 178.348 478.817C178.332 477.289 166.972 438.843 166.972 438.843Z" fill="#F7F7FF"/>
<path d="M-16.9823 141.806L26.9778 135.676L47.2404 124.568L70.0397 131.139L106.468 129.122L118.947 109.505L137.146 112.499L181.342 108.355L193.522 94.9307L210.696 83.4601L234.992 87.1155L243.847 85.7763C211.846 70.7132 176.237 62 138.501 62C61.6889 62 -6.99284 97.0105 -52.3395 151.984H-52.2134L-16.9823 141.806ZM148.963 86.6113L174.236 72.6985L190.465 82.0735L166.972 99.9569L144.536 102.21L134.436 95.6555L148.963 86.6113ZM74.1049 88.6439L85.2603 93.292L99.8664 88.6439L107.823 102.431L74.1049 111.286L57.8916 101.8C57.8759 101.8 73.7425 91.5903 74.1049 88.6439Z" fill="#F7F7FF"/>
</g>
</g>
<defs>
<clipPath id="clip0">
<rect width="550" height="506" fill="white"/>
</clipPath>
</defs>
</svg>
